<mxfile host="app.diagrams.net" modified="2023-12-10T06:54:41.560Z" agent="Mozilla/5.0 (Macintosh; Intel Mac OS X 10_15_7) AppleWebKit/537.36 (KHTML, like Gecko) Chrome/119.0.0.0 Safari/537.36" etag="37Sk8JPlDOFdVDoH135b" version="22.1.7" type="github">
  <diagram name="第 1 页" id="O4gylGWorS5RYXdqu5g7">
    <mxGraphModel dx="2074" dy="1182" grid="1" gridSize="10" guides="1" tooltips="1" connect="1" arrows="1" fold="1" page="1" pageScale="1" pageWidth="900" pageHeight="400" math="0" shadow="0">
      <root>
        <mxCell id="0" />
        <mxCell id="1" parent="0" />
        <mxCell id="80u9e6t0kzMfV8w3QOkc-14" value="" style="edgeStyle=orthogonalEdgeStyle;rounded=0;orthogonalLoop=1;jettySize=auto;html=1;" edge="1" parent="1" source="80u9e6t0kzMfV8w3QOkc-1" target="80u9e6t0kzMfV8w3QOkc-2">
          <mxGeometry relative="1" as="geometry" />
        </mxCell>
        <mxCell id="80u9e6t0kzMfV8w3QOkc-1" value="策划步骤全集" style="shape=cylinder3;whiteSpace=wrap;html=1;boundedLbl=1;backgroundOutline=1;size=15;fillColor=#dae8fc;strokeColor=#6c8ebf;" vertex="1" parent="1">
          <mxGeometry x="25" y="215" width="80" height="80" as="geometry" />
        </mxCell>
        <mxCell id="80u9e6t0kzMfV8w3QOkc-15" value="" style="edgeStyle=orthogonalEdgeStyle;rounded=0;orthogonalLoop=1;jettySize=auto;html=1;" edge="1" parent="1" source="80u9e6t0kzMfV8w3QOkc-2" target="80u9e6t0kzMfV8w3QOkc-3">
          <mxGeometry relative="1" as="geometry" />
        </mxCell>
        <mxCell id="80u9e6t0kzMfV8w3QOkc-2" value="Embedding" style="rounded=1;whiteSpace=wrap;html=1;fillColor=#fff2cc;strokeColor=#d6b656;" vertex="1" parent="1">
          <mxGeometry x="140" y="235" width="100" height="40" as="geometry" />
        </mxCell>
        <mxCell id="80u9e6t0kzMfV8w3QOkc-3" value="聚类算法" style="rounded=1;whiteSpace=wrap;html=1;fillColor=#d5e8d4;strokeColor=#82b366;" vertex="1" parent="1">
          <mxGeometry x="270" y="235" width="100" height="40" as="geometry" />
        </mxCell>
        <mxCell id="80u9e6t0kzMfV8w3QOkc-4" value="" style="shape=curlyBracket;whiteSpace=wrap;html=1;rounded=1;labelPosition=left;verticalLabelPosition=middle;align=right;verticalAlign=middle;" vertex="1" parent="1">
          <mxGeometry x="390" y="195" width="20" height="120" as="geometry" />
        </mxCell>
        <mxCell id="80u9e6t0kzMfV8w3QOkc-17" value="" style="edgeStyle=orthogonalEdgeStyle;rounded=0;orthogonalLoop=1;jettySize=auto;html=1;" edge="1" parent="1" source="80u9e6t0kzMfV8w3QOkc-6" target="80u9e6t0kzMfV8w3QOkc-8">
          <mxGeometry relative="1" as="geometry" />
        </mxCell>
        <mxCell id="80u9e6t0kzMfV8w3QOkc-6" value="策划步骤&lt;br&gt;cluster" style="shape=cylinder3;whiteSpace=wrap;html=1;boundedLbl=1;backgroundOutline=1;size=15;fillColor=#dae8fc;strokeColor=#6c8ebf;" vertex="1" parent="1">
          <mxGeometry x="434" y="145" width="80" height="80" as="geometry" />
        </mxCell>
        <mxCell id="80u9e6t0kzMfV8w3QOkc-19" value="" style="edgeStyle=orthogonalEdgeStyle;rounded=0;orthogonalLoop=1;jettySize=auto;html=1;" edge="1" parent="1" source="80u9e6t0kzMfV8w3QOkc-7" target="80u9e6t0kzMfV8w3QOkc-12">
          <mxGeometry relative="1" as="geometry" />
        </mxCell>
        <mxCell id="80u9e6t0kzMfV8w3QOkc-7" value="策划步骤cluster" style="shape=cylinder3;whiteSpace=wrap;html=1;boundedLbl=1;backgroundOutline=1;size=15;fillColor=#dae8fc;strokeColor=#6c8ebf;" vertex="1" parent="1">
          <mxGeometry x="434" y="295" width="80" height="80" as="geometry" />
        </mxCell>
        <mxCell id="80u9e6t0kzMfV8w3QOkc-18" value="" style="edgeStyle=orthogonalEdgeStyle;rounded=0;orthogonalLoop=1;jettySize=auto;html=1;" edge="1" parent="1" source="80u9e6t0kzMfV8w3QOkc-8" target="80u9e6t0kzMfV8w3QOkc-10">
          <mxGeometry relative="1" as="geometry" />
        </mxCell>
        <mxCell id="80u9e6t0kzMfV8w3QOkc-8" value="" style="shape=image;verticalLabelPosition=bottom;labelBackgroundColor=default;verticalAlign=top;aspect=fixed;imageAspect=0;image=data:image/png,iVBORw0KGgoAAAANSUhEUgAAAOEAAADhCAMAAAAJbSJIAAAAYFBMVEV0qpz///+Ds6ZrpZZvp5lno5TY5uJ/sKRxqZrk7uuVvbJtppfw9vT4+/rK3dj0+Pety8PC2NKfw7nh7OmvzMS30crG2tWNuK2jxbzR4d14rJ+XvrTZ5+Pq8vCBsqW81M7BZKrAAAAReUlEQVR4nN2d6XbiMBJGjSUFgTA7MTYhef+3bJstWqpKJdkkob85c+ZHZ8AXa6lNpWKSoGr2ttkf53X5Of0NfZZlfdxv3s5VykMX3D88L4+lVEJKqYui0L+h7nsLKY1QcnpcLsYl3K1bZS7f8EckjWqPb2MRztaFkL+NBEgKfdyNQPg+VX8R7yKtVbkcSLgpxG9jRCSKzQDC98L8NgBDhmYkCN/av/7+7hItseighNVc/faDJ0id0D0SI1yqv7Q5xKXFexrh9pVe4FVqm0B4bl9hhfFl2jOXsHm9F3iVaHiEh1cF7EbqgUN4fF3ADnEdJzy+yiYISxxjhC8OCCB6hPtXB+wQ1xTh1yvPwbu85cYhfNltwpVqMMLz/wHYIZ4Rwt9+sPHUwoSnP+vLJ8tsIcL/ZBJepZYhYfWnYmmDJaqAcPv/jNFeeu4Tfjx3jOrip0eI+vAI2+d8j5bGCKX6eLXs/teYnxsprUu4eYK11tGJ4nRYfpyrflJU1WrWHLatED/zOsXGIRz/C7TQWzC5sGqOhZI/QWkTbsaOWkiz/QDo7tqt5fPjJGZjEY782aL4iibA3n8gGvtNuBzzy7RpscCeq6Z8MqNYPgjLEWeF1JE8gqXlc7MGur4TzkbcC9U2KUH73KDQxcfoCdejbVJS8rKW39oVT9wh5fpGONonijrpBV51euZsvBLuxvoKtU/nmzw1dCJ2F8KRBqlW0XQsouZpb7EfpsVoJqmAc+qzzbFuu69op/Xx0MAVFKONokBtT7gYZ5CYGfDoy7lRprfQ9OW/nRFegBUUM3MtI7lJjGahq0VHuBxlT1LhGzyvJVDD0dmr+/BNzop6//5xXlW9hb7YNYdTZ6GPQGmWHeFxjO0+nIPnE1rDYdQWzIO5WjR9Ec/A55LHjvBz4If0En7OpzqSNSqaaRicD+3AWpfPSVGNMBbk3HuypY79+FIyV96PelC+XVbFGGHg1nuqLeeh2PbdeTvgPapz8TZ8pfZWmdUna/YYvoU3q7MfUrwVm8Gj1LjJnrPkfKIMpi6pJtcLkZtiP3weuoCcR+lWmlUK4IQ58kPJQzF4s3AzPSvOx4mSUVMYvMas2I4+FkOzFbJ2nqONf5ws8gzYBeOzwy87FXUGlS13mTlFx6jO9EB61RmI9VBCXdqPsIluPeqEli/P3vfH+bT9rLf7JTKK5+nrTV2UWWAPOUU6i9iiLqZIjHHxNS+UMbp/SZ2FbpSuN9BPER8jvsqhhM5mHxlFRsJBqmozVdJfR6QE63+T3+JQQmPvam/kGJVqDRox1dogT62h+t/UuOBQQmUPJfKjVA37E3vSfzDSL1WrEh32IYSdyzq110UqQWeQKt5lNNSm5t6bP6dZcNmEUojT0rVL8FkozRfIt+NEvbVvvy6TfIVMQi3qxp9UaDREqiM4AVdcQ8yvOEwyUrIINeijYxEzVUIRnMnkwI9S+OW/KfZbBqFGNm3YwDUtVNWa6iyYE+vHhJROKJBXAgYlNVTS2ulcJ/rdxq04TDDfUgmlwTJLUKwA8ZEiQRxQrjuZEJhIJDQlalWGQUnxCVuXG2yHJ+U6aVv2TEwjBGqMH/JzAwYJNeWexNHGHg/8TTGFUCsqtzt3CcNq5IsW+SdxXEd0zh3nKYSCqj3wFhoDv+09PgGliQ1eZ5zuuL9UAqFE1tCb3G/044sXEVFUU6ybZh85yDK1P2zKfGw+oQAA7X3fITTAJkGYaPLu929IK0DYM/uLOUzZhEDurJnaM8MhFIGdvTrhJpplQkQ2EusDo972TVxCFVgmTSucYD5NeEBLvbRonflNGQNOQIH5apiEQfh20T8Hm5Aw0YwMFugGnY7Ocnrg7ao8Ql17D3GdL0zCGf5WEL//gI1o2+FmJo6Z79B7jNumxiLsZhY+ARG/H3WsHJtxxHfoTcLqnnnhEK7wlQPz+69vCFx5nW/kTUQOoXazg4tH4IFDiPvFiN//EFgSZqw/4OUjOISOQThZ6McHDyDUiN/vaB/ujvauzCsZZRC6u3dlFWznE2J+v6fQijXWps/zgxmE2vlSO1yZS2iK0O+vYE/kY+piGCu4NxuJ0HV51/bIyCME/f53qZCAv2vISStisxqJ0HmFblQ7i1CdQr9/N+1NHjWH3WvbkLN35mocQncWuv+WQSimoX3bmay3zxNw4s025OxU1zgrjbJ/8aP7mcmERgM+9N7a3LHk6bchZ3tQoxA6lqAf/0kkBE00P6yPJcDv0dXRCR1r3o8cpBGqeWiizULLBStiuBlyo49SY/3qQQgvhVBMQxMNsT41UojS/xyjrzTOIA0qbfmEUgBh1gNe2ocEypfSju/zfOAYof1g2v/BuYRIamZF+POqho2etbXa8tynCKGyvicsD2MS4iYa6TlGDddmjHkorQ8MTXkeITLibk+Jh9ekihxN4cWiaELHtweegUNIhMkvwiM4dPsnbmSfJpTW4wHzOiESRYhKlKJBgF68iClNaFvdgK+SQzg7hZOSjKTCBRydKl7Umya0H/QrnDDSzluyCPtwKLSEEAULQDDuKmZhbITQ+r2BUZ9M+HU5ZADGL/ZEQBWw1jsdeUHvCKHlzgBp10TC73UTikFRWSkwr87iixJaFiLwd0mEbiwbWkI+PtFxB3nN61FGqTVjgEMLKYRrz36RfqOcXkR2WOpgW+WlEPmEwNrMJ4QeHazj838IS6r2fQ5W/RefcMAoxYYfVItJTMegOIqV6ubPwzp3LSWXECA044fX7D/3ZiOnT0KE0FoOgFIrFiG+DfTSUGgGn45+qQSjFJO/HwLnMDmE0Xw7cOiNyJN6BRCMupqI1WatX+95Nk00bAtlz4k8qffO49t+xPK2jA/A33wiIZ5VdXeZeCQj4j1ZYwI44/ZUwruNF8g96hjNBEc8YDuyFc7qJxNifpWx19/VQEI7XRc6Fw6h8zRZhDMo2ghMR+kc8YjNxFicxlrownXLIXRin1mEb1DZ3FKHBE5dTWw5jb1D288J/tIvYPheHPIIhTFg1D/8P9n/HklLRAgdhnC/UP7T3IMumYSdAQBUbIbRBeeHj6SCo1F929oNxktY3LW6NpHOJSzA7Ns+XAGsf40EhqNRfXvYHMK0emg6X4IuAwiBoH4YkXFmIk0QI3SGaRVEvcNiqcmlBHEIIZAFp1cAekuM5w/tJRyw5cGM314NIgwqGUKr3y6O+iC/IkooHTvwE9iBoRTD+XuTyyLsc2wkoR3npC03RqWCHfsDfU7y2HImobtOh4ROUozsChEnlM5Mgw+JEvVNTyJ0VlOyqSWnYsh5YqQbNlQi81RC25wllxoOoeuRYf2wkRTDswjt4iiy/wynrk24j471NIczfgk+fhqh9buTiymH0DtxDxqK1z+Ejgzx4zRJhNpaa8mYG6u+1L/+A2/OBYbrT8xYW9pKY+W9SLuNVyPsjdPJB34AEJqOnSEH/r34dIy+JELbOScL3Jh13s5Zjv4ziQQ8FK5/h2Le/phOI/z8/mdyy2fWeXsnHDs1gGf6eHTAy1t71bDduuT/STbhCO8wCOL12uPJaShcf57Hck+/OUp7ha+FXEKAjN/bI1wPVwRlrzTD19LCrVn41rUuFBQYridywKmEdqCTLB1ij1IkMf+O9wOG/KpLHh/rgIUTAplCO1hNFnyzzz2hFRFExg86FA3VYuQQ2j852eqKS/gZPM9DxFGstHZQaYTWPCcPXjAJNXLj1+3RiNKtaEuv9eNRkwjtI5xkjo1JiDSWeeiLOvtD17WpLEJn5SOj3twdn3rKXtTJSKyS8hq0zyO0g3x0o2fu+UPb34Rr8Yjp2Nkv0HS8/ip5hPb2TPfU4xJa83qrdKygPkQEZuPtqEgWoeOVAxUGGYSV84FYbwy4XQm4oj4MnCxCO5gYSZJy56H1dSX20BM44wf9HJaRmkOobUcg0kM3g/BaOiQFbHr55wvAiLFtJeQQOmHqSJ+TbEKi9ZPlV0mowd6703ggg9Bp5RJr9JxB+B1/Rdt33acj5GHsvIKgDELnsFmYmMoi9FaauyTS7ORSBqVFC5ziCq5wTSdUjvMZe3QuobWuOK4M6M9P+tItBdX2AsfQkwndpiLRo7JcQms4ei1dkQreyTL0RsASmVRCtxXlJFr2xSW0FpUg2U20s7QF1lUkE2q3N0C8sQJ3pbFGXBinx45i2UIbD6QR6sL5NaPVNHzfwh77wKdG28oi9U2phNIFnJyG1iY+5GSVwS2WbA1MOZDfh1TjhKZ0JzfdbDOJ0EnXweeNcH+eDAJY2ZwoofKithXnydmRKOsNYVYE3H6O7zlGCLXwZwLtVCQSOgFA9JMBf35D9Ibyyu9pQjX3h8hhrJ4KFzm7EHEBlufPf7REQNV/4wShUWUQRWfeucnvE2X/gsTf2XnSxGMwOGFdhlEU7s0tbEInUUTWyD/O/OLN2cDyNc+GtgkBi4LXFKNIyVs4xhJ9lsO0+6ZZE72h4DCI+0dBVaALyG69yCe0jwRH54AxBk2igj7jJGjYAPa0uyvhciE+oRsUzun/fhXW32PrxQaCjKWlTcI9CQldBYVbXp13pQJ2tDcoBYaTXVclXUeX0jfRSdpm3Y8cJLZv2oUHowxq6C7KpPanKb0vnfgPWjmEi+gJHfsyS5vEy65SCL26mmPST4lHdeD2c8hCA7ztiJJ60Hp925LuKcAK35BAuQQbvJ6JvDqmtC670v1C/oyXULvPCer3wznnGX4LGKFEQi+NeOAhYo4V0XAwzDkvy7yrdBJ7QftNPpuw8jsU5hzjfr+fka2arcm9+j21n7fwtusq2vkYC3AQfr9nQO0/zYCLrlMJg/qvSVNQq5tBTDS6Kbuzag+8nzG567xfitlp02Ldf43EriWh1wxnM2R2YsWU3lcfMhibWvlzSkupWuTu6k3kUm53qxh4iWjG3QhhFV//Vt7r/j7OK6bs6Ir6C7FKPqJN2bX9wwy9hrXMuO8JROwgd+/7bTltp+X8uEHLgqhiuJvcBXvgXUZZhNBc5IooaLzLveiBuryGpTLr3jXZsjIVgeL35gSZl8GXopd5d+dpESuwAcS6N0e2zuqU5aQ5KovwyB1L/tUvUfHuzfEAR7gyvMy+wxI9JQOLd2+ObF0DdoQLtcsB95Di1VyB3iI74E3Sy7ywr3ggVA65S1aqE+Pm4l4VZ4jqYORnP5mlcth9wFrNyWs9vgWdOnclg9AM+x4SSuXQO52lmh5YL7Kib/WVoQ/Jy7zE1BEyu4LhMqpdvzFqgWdzdKhKNQ/mdNr1aqjKce5Wl8K0p8Nyd70cfXHeLQ/zAijyPkKenhTyGP7tYGPmpo5woP/1kDTuBffaAKO389b72zgvGc/uP1J29vocKEyJHF9OUEc41D3BZeDdZNEcTp9tq6Vu6/US/pu3QdeN2+oJR9hWEdEtMIkOrCPNwV494Qh3jyPSsSariNAznBnqCUfZWBElm6/9u82/SR3QhXDwfkHIFKlXcDeJiYmILoRjmH+4qOvogBdI3AuVpQvh4EgBrRQvZJMb+EV1JSTKR0aRKHl9hZeRi9dydCV85lpzkVZAvYg/PjeZNyPSuhHyLqUZIi30mlpzPrbiOc9wI6QPR40kqdpjA1noi+W2GJCZoHUnfP5LvEgLMT1u3joDvTdoqmoxaw7bVhhOCitTd8LnGaeBtOwM9EvURkslxLi7X6gHIacYdVTp4nnvzdaDcDL/mS/8cX0T8m5Pej19E07ef3qc/owswrRL2V9GNuHTLZtfkUNIHxl+UTmEYwYP/oxcQm43/leSR5hcjvf35RNO5v8bYkCYVnH4AgoJ/YLrVxdAOFn/VysqRPh/2W8g4WT3Q57NTwgmnFTz/2YyIoT9oY3/xA5HCScLsgL0dYQT4jdMvJYowr549fUZacJJtX5SnPbnFCHsGL/akZNBP6woYafd1rCK0v6mOITX8w5KviYlj7DX7GveCmFMtHrrj4lP2Gv1sTysT3XZ/lwOYLDKf1fs1eSAoKQQAAAAAElFTkSuQmCC;" vertex="1" parent="1">
          <mxGeometry x="560" y="160" width="50" height="50" as="geometry" />
        </mxCell>
        <mxCell id="80u9e6t0kzMfV8w3QOkc-10" value="策划步骤1的描述总结" style="shape=note;whiteSpace=wrap;html=1;backgroundOutline=1;darkOpacity=0.05;" vertex="1" parent="1">
          <mxGeometry x="650" y="167.5" width="200" height="35" as="geometry" />
        </mxCell>
        <mxCell id="80u9e6t0kzMfV8w3QOkc-20" value="" style="edgeStyle=orthogonalEdgeStyle;rounded=0;orthogonalLoop=1;jettySize=auto;html=1;" edge="1" parent="1" source="80u9e6t0kzMfV8w3QOkc-12" target="80u9e6t0kzMfV8w3QOkc-13">
          <mxGeometry relative="1" as="geometry" />
        </mxCell>
        <mxCell id="80u9e6t0kzMfV8w3QOkc-12" value="" style="shape=image;verticalLabelPosition=bottom;labelBackgroundColor=default;verticalAlign=top;aspect=fixed;imageAspect=0;image=data:image/png,iVBORw0KGgoAAAANSUhEUgAAAOEAAADhCAMAAAAJbSJIAAAAYFBMVEV0qpz///+Ds6ZrpZZvp5lno5TY5uJ/sKRxqZrk7uuVvbJtppfw9vT4+/rK3dj0+Pety8PC2NKfw7nh7OmvzMS30crG2tWNuK2jxbzR4d14rJ+XvrTZ5+Pq8vCBsqW81M7BZKrAAAAReUlEQVR4nN2d6XbiMBJGjSUFgTA7MTYhef+3bJstWqpKJdkkob85c+ZHZ8AXa6lNpWKSoGr2ttkf53X5Of0NfZZlfdxv3s5VykMX3D88L4+lVEJKqYui0L+h7nsLKY1QcnpcLsYl3K1bZS7f8EckjWqPb2MRztaFkL+NBEgKfdyNQPg+VX8R7yKtVbkcSLgpxG9jRCSKzQDC98L8NgBDhmYkCN/av/7+7hItseighNVc/faDJ0id0D0SI1yqv7Q5xKXFexrh9pVe4FVqm0B4bl9hhfFl2jOXsHm9F3iVaHiEh1cF7EbqgUN4fF3ADnEdJzy+yiYISxxjhC8OCCB6hPtXB+wQ1xTh1yvPwbu85cYhfNltwpVqMMLz/wHYIZ4Rwt9+sPHUwoSnP+vLJ8tsIcL/ZBJepZYhYfWnYmmDJaqAcPv/jNFeeu4Tfjx3jOrip0eI+vAI2+d8j5bGCKX6eLXs/teYnxsprUu4eYK11tGJ4nRYfpyrflJU1WrWHLatED/zOsXGIRz/C7TQWzC5sGqOhZI/QWkTbsaOWkiz/QDo7tqt5fPjJGZjEY782aL4iibA3n8gGvtNuBzzy7RpscCeq6Z8MqNYPgjLEWeF1JE8gqXlc7MGur4TzkbcC9U2KUH73KDQxcfoCdejbVJS8rKW39oVT9wh5fpGONonijrpBV51euZsvBLuxvoKtU/nmzw1dCJ2F8KRBqlW0XQsouZpb7EfpsVoJqmAc+qzzbFuu69op/Xx0MAVFKONokBtT7gYZ5CYGfDoy7lRprfQ9OW/nRFegBUUM3MtI7lJjGahq0VHuBxlT1LhGzyvJVDD0dmr+/BNzop6//5xXlW9hb7YNYdTZ6GPQGmWHeFxjO0+nIPnE1rDYdQWzIO5WjR9Ec/A55LHjvBz4If0En7OpzqSNSqaaRicD+3AWpfPSVGNMBbk3HuypY79+FIyV96PelC+XVbFGGHg1nuqLeeh2PbdeTvgPapz8TZ8pfZWmdUna/YYvoU3q7MfUrwVm8Gj1LjJnrPkfKIMpi6pJtcLkZtiP3weuoCcR+lWmlUK4IQ58kPJQzF4s3AzPSvOx4mSUVMYvMas2I4+FkOzFbJ2nqONf5ws8gzYBeOzwy87FXUGlS13mTlFx6jO9EB61RmI9VBCXdqPsIluPeqEli/P3vfH+bT9rLf7JTKK5+nrTV2UWWAPOUU6i9iiLqZIjHHxNS+UMbp/SZ2FbpSuN9BPER8jvsqhhM5mHxlFRsJBqmozVdJfR6QE63+T3+JQQmPvam/kGJVqDRox1dogT62h+t/UuOBQQmUPJfKjVA37E3vSfzDSL1WrEh32IYSdyzq110UqQWeQKt5lNNSm5t6bP6dZcNmEUojT0rVL8FkozRfIt+NEvbVvvy6TfIVMQi3qxp9UaDREqiM4AVdcQ8yvOEwyUrIINeijYxEzVUIRnMnkwI9S+OW/KfZbBqFGNm3YwDUtVNWa6iyYE+vHhJROKJBXAgYlNVTS2ulcJ/rdxq04TDDfUgmlwTJLUKwA8ZEiQRxQrjuZEJhIJDQlalWGQUnxCVuXG2yHJ+U6aVv2TEwjBGqMH/JzAwYJNeWexNHGHg/8TTGFUCsqtzt3CcNq5IsW+SdxXEd0zh3nKYSCqj3wFhoDv+09PgGliQ1eZ5zuuL9UAqFE1tCb3G/044sXEVFUU6ybZh85yDK1P2zKfGw+oQAA7X3fITTAJkGYaPLu929IK0DYM/uLOUzZhEDurJnaM8MhFIGdvTrhJpplQkQ2EusDo972TVxCFVgmTSucYD5NeEBLvbRonflNGQNOQIH5apiEQfh20T8Hm5Aw0YwMFugGnY7Ocnrg7ao8Ql17D3GdL0zCGf5WEL//gI1o2+FmJo6Z79B7jNumxiLsZhY+ARG/H3WsHJtxxHfoTcLqnnnhEK7wlQPz+69vCFx5nW/kTUQOoXazg4tH4IFDiPvFiN//EFgSZqw/4OUjOISOQThZ6McHDyDUiN/vaB/ujvauzCsZZRC6u3dlFWznE2J+v6fQijXWps/zgxmE2vlSO1yZS2iK0O+vYE/kY+piGCu4NxuJ0HV51/bIyCME/f53qZCAv2vISStisxqJ0HmFblQ7i1CdQr9/N+1NHjWH3WvbkLN35mocQncWuv+WQSimoX3bmay3zxNw4s025OxU1zgrjbJ/8aP7mcmERgM+9N7a3LHk6bchZ3tQoxA6lqAf/0kkBE00P6yPJcDv0dXRCR1r3o8cpBGqeWiizULLBStiuBlyo49SY/3qQQgvhVBMQxMNsT41UojS/xyjrzTOIA0qbfmEUgBh1gNe2ocEypfSju/zfOAYof1g2v/BuYRIamZF+POqho2etbXa8tynCKGyvicsD2MS4iYa6TlGDddmjHkorQ8MTXkeITLibk+Jh9ekihxN4cWiaELHtweegUNIhMkvwiM4dPsnbmSfJpTW4wHzOiESRYhKlKJBgF68iClNaFvdgK+SQzg7hZOSjKTCBRydKl7Umya0H/QrnDDSzluyCPtwKLSEEAULQDDuKmZhbITQ+r2BUZ9M+HU5ZADGL/ZEQBWw1jsdeUHvCKHlzgBp10TC73UTikFRWSkwr87iixJaFiLwd0mEbiwbWkI+PtFxB3nN61FGqTVjgEMLKYRrz36RfqOcXkR2WOpgW+WlEPmEwNrMJ4QeHazj838IS6r2fQ5W/RefcMAoxYYfVItJTMegOIqV6ubPwzp3LSWXECA044fX7D/3ZiOnT0KE0FoOgFIrFiG+DfTSUGgGn45+qQSjFJO/HwLnMDmE0Xw7cOiNyJN6BRCMupqI1WatX+95Nk00bAtlz4k8qffO49t+xPK2jA/A33wiIZ5VdXeZeCQj4j1ZYwI44/ZUwruNF8g96hjNBEc8YDuyFc7qJxNifpWx19/VQEI7XRc6Fw6h8zRZhDMo2ghMR+kc8YjNxFicxlrownXLIXRin1mEb1DZ3FKHBE5dTWw5jb1D288J/tIvYPheHPIIhTFg1D/8P9n/HklLRAgdhnC/UP7T3IMumYSdAQBUbIbRBeeHj6SCo1F929oNxktY3LW6NpHOJSzA7Ns+XAGsf40EhqNRfXvYHMK0emg6X4IuAwiBoH4YkXFmIk0QI3SGaRVEvcNiqcmlBHEIIZAFp1cAekuM5w/tJRyw5cGM314NIgwqGUKr3y6O+iC/IkooHTvwE9iBoRTD+XuTyyLsc2wkoR3npC03RqWCHfsDfU7y2HImobtOh4ROUozsChEnlM5Mgw+JEvVNTyJ0VlOyqSWnYsh5YqQbNlQi81RC25wllxoOoeuRYf2wkRTDswjt4iiy/wynrk24j471NIczfgk+fhqh9buTiymH0DtxDxqK1z+Ejgzx4zRJhNpaa8mYG6u+1L/+A2/OBYbrT8xYW9pKY+W9SLuNVyPsjdPJB34AEJqOnSEH/r34dIy+JELbOScL3Jh13s5Zjv4ziQQ8FK5/h2Le/phOI/z8/mdyy2fWeXsnHDs1gGf6eHTAy1t71bDduuT/STbhCO8wCOL12uPJaShcf57Hck+/OUp7ha+FXEKAjN/bI1wPVwRlrzTD19LCrVn41rUuFBQYridywKmEdqCTLB1ij1IkMf+O9wOG/KpLHh/rgIUTAplCO1hNFnyzzz2hFRFExg86FA3VYuQQ2j852eqKS/gZPM9DxFGstHZQaYTWPCcPXjAJNXLj1+3RiNKtaEuv9eNRkwjtI5xkjo1JiDSWeeiLOvtD17WpLEJn5SOj3twdn3rKXtTJSKyS8hq0zyO0g3x0o2fu+UPb34Rr8Yjp2Nkv0HS8/ip5hPb2TPfU4xJa83qrdKygPkQEZuPtqEgWoeOVAxUGGYSV84FYbwy4XQm4oj4MnCxCO5gYSZJy56H1dSX20BM44wf9HJaRmkOobUcg0kM3g/BaOiQFbHr55wvAiLFtJeQQOmHqSJ+TbEKi9ZPlV0mowd6703ggg9Bp5RJr9JxB+B1/Rdt33acj5GHsvIKgDELnsFmYmMoi9FaauyTS7ORSBqVFC5ziCq5wTSdUjvMZe3QuobWuOK4M6M9P+tItBdX2AsfQkwndpiLRo7JcQms4ei1dkQreyTL0RsASmVRCtxXlJFr2xSW0FpUg2U20s7QF1lUkE2q3N0C8sQJ3pbFGXBinx45i2UIbD6QR6sL5NaPVNHzfwh77wKdG28oi9U2phNIFnJyG1iY+5GSVwS2WbA1MOZDfh1TjhKZ0JzfdbDOJ0EnXweeNcH+eDAJY2ZwoofKithXnydmRKOsNYVYE3H6O7zlGCLXwZwLtVCQSOgFA9JMBf35D9Ibyyu9pQjX3h8hhrJ4KFzm7EHEBlufPf7REQNV/4wShUWUQRWfeucnvE2X/gsTf2XnSxGMwOGFdhlEU7s0tbEInUUTWyD/O/OLN2cDyNc+GtgkBi4LXFKNIyVs4xhJ9lsO0+6ZZE72h4DCI+0dBVaALyG69yCe0jwRH54AxBk2igj7jJGjYAPa0uyvhciE+oRsUzun/fhXW32PrxQaCjKWlTcI9CQldBYVbXp13pQJ2tDcoBYaTXVclXUeX0jfRSdpm3Y8cJLZv2oUHowxq6C7KpPanKb0vnfgPWjmEi+gJHfsyS5vEy65SCL26mmPST4lHdeD2c8hCA7ztiJJ60Hp925LuKcAK35BAuQQbvJ6JvDqmtC670v1C/oyXULvPCer3wznnGX4LGKFEQi+NeOAhYo4V0XAwzDkvy7yrdBJ7QftNPpuw8jsU5hzjfr+fka2arcm9+j21n7fwtusq2vkYC3AQfr9nQO0/zYCLrlMJg/qvSVNQq5tBTDS6Kbuzag+8nzG567xfitlp02Ldf43EriWh1wxnM2R2YsWU3lcfMhibWvlzSkupWuTu6k3kUm53qxh4iWjG3QhhFV//Vt7r/j7OK6bs6Ir6C7FKPqJN2bX9wwy9hrXMuO8JROwgd+/7bTltp+X8uEHLgqhiuJvcBXvgXUZZhNBc5IooaLzLveiBuryGpTLr3jXZsjIVgeL35gSZl8GXopd5d+dpESuwAcS6N0e2zuqU5aQ5KovwyB1L/tUvUfHuzfEAR7gyvMy+wxI9JQOLd2+ObF0DdoQLtcsB95Di1VyB3iI74E3Sy7ywr3ggVA65S1aqE+Pm4l4VZ4jqYORnP5mlcth9wFrNyWs9vgWdOnclg9AM+x4SSuXQO52lmh5YL7Kib/WVoQ/Jy7zE1BEyu4LhMqpdvzFqgWdzdKhKNQ/mdNr1aqjKce5Wl8K0p8Nyd70cfXHeLQ/zAijyPkKenhTyGP7tYGPmpo5woP/1kDTuBffaAKO389b72zgvGc/uP1J29vocKEyJHF9OUEc41D3BZeDdZNEcTp9tq6Vu6/US/pu3QdeN2+oJR9hWEdEtMIkOrCPNwV494Qh3jyPSsSariNAznBnqCUfZWBElm6/9u82/SR3QhXDwfkHIFKlXcDeJiYmILoRjmH+4qOvogBdI3AuVpQvh4EgBrRQvZJMb+EV1JSTKR0aRKHl9hZeRi9dydCV85lpzkVZAvYg/PjeZNyPSuhHyLqUZIi30mlpzPrbiOc9wI6QPR40kqdpjA1noi+W2GJCZoHUnfP5LvEgLMT1u3joDvTdoqmoxaw7bVhhOCitTd8LnGaeBtOwM9EvURkslxLi7X6gHIacYdVTp4nnvzdaDcDL/mS/8cX0T8m5Pej19E07ef3qc/owswrRL2V9GNuHTLZtfkUNIHxl+UTmEYwYP/oxcQm43/leSR5hcjvf35RNO5v8bYkCYVnH4AgoJ/YLrVxdAOFn/VysqRPh/2W8g4WT3Q57NTwgmnFTz/2YyIoT9oY3/xA5HCScLsgL0dYQT4jdMvJYowr549fUZacJJtX5SnPbnFCHsGL/akZNBP6woYafd1rCK0v6mOITX8w5KviYlj7DX7GveCmFMtHrrj4lP2Gv1sTysT3XZ/lwOYLDKf1fs1eSAoKQQAAAAAElFTkSuQmCC;" vertex="1" parent="1">
          <mxGeometry x="560" y="310" width="50" height="50" as="geometry" />
        </mxCell>
        <mxCell id="80u9e6t0kzMfV8w3QOkc-13" value="策划步骤n的描述总结" style="shape=note;whiteSpace=wrap;html=1;backgroundOutline=1;darkOpacity=0.05;" vertex="1" parent="1">
          <mxGeometry x="650" y="317.5" width="200" height="35" as="geometry" />
        </mxCell>
        <mxCell id="80u9e6t0kzMfV8w3QOkc-21" value="" style="endArrow=none;dashed=1;html=1;rounded=0;dashPattern=1 1;strokeWidth=5;" edge="1" parent="1">
          <mxGeometry width="50" height="50" relative="1" as="geometry">
            <mxPoint x="560" y="275" as="sourcePoint" />
            <mxPoint x="560" y="240" as="targetPoint" />
          </mxGeometry>
        </mxCell>
        <mxCell id="80u9e6t0kzMfV8w3QOkc-22" style="edgeStyle=orthogonalEdgeStyle;rounded=0;orthogonalLoop=1;jettySize=auto;html=1;exitX=1;exitY=0.5;exitDx=0;exitDy=0;entryX=0.1;entryY=0.5;entryDx=0;entryDy=0;entryPerimeter=0;" edge="1" parent="1" source="80u9e6t0kzMfV8w3QOkc-3" target="80u9e6t0kzMfV8w3QOkc-4">
          <mxGeometry relative="1" as="geometry" />
        </mxCell>
        <mxCell id="80u9e6t0kzMfV8w3QOkc-23" value="用GPT对策划步骤cluster进行总结归纳，形成一条具有代表性的策划步骤描述" style="text;html=1;strokeColor=none;fillColor=none;align=center;verticalAlign=middle;whiteSpace=wrap;rounded=0;" vertex="1" parent="1">
          <mxGeometry x="580" y="225" width="240" height="30" as="geometry" />
        </mxCell>
        <mxCell id="80u9e6t0kzMfV8w3QOkc-28" style="edgeStyle=orthogonalEdgeStyle;rounded=0;orthogonalLoop=1;jettySize=auto;html=1;exitX=0.5;exitY=1;exitDx=0;exitDy=0;exitPerimeter=0;entryX=0.5;entryY=0;entryDx=0;entryDy=0;" edge="1" parent="1" source="80u9e6t0kzMfV8w3QOkc-24" target="80u9e6t0kzMfV8w3QOkc-27">
          <mxGeometry relative="1" as="geometry" />
        </mxCell>
        <mxCell id="80u9e6t0kzMfV8w3QOkc-24" value="多轮querys" style="shape=cylinder3;whiteSpace=wrap;html=1;boundedLbl=1;backgroundOutline=1;size=15;fillColor=#dae8fc;strokeColor=#6c8ebf;" vertex="1" parent="1">
          <mxGeometry x="30" y="20" width="70" height="60" as="geometry" />
        </mxCell>
        <mxCell id="80u9e6t0kzMfV8w3QOkc-25" value="profiles" style="shape=cylinder3;whiteSpace=wrap;html=1;boundedLbl=1;backgroundOutline=1;size=15;fillColor=#dae8fc;strokeColor=#6c8ebf;" vertex="1" parent="1">
          <mxGeometry x="125" y="20" width="70" height="60" as="geometry" />
        </mxCell>
        <mxCell id="80u9e6t0kzMfV8w3QOkc-26" value="intents" style="shape=cylinder3;whiteSpace=wrap;html=1;boundedLbl=1;backgroundOutline=1;size=15;fillColor=#dae8fc;strokeColor=#6c8ebf;" vertex="1" parent="1">
          <mxGeometry x="225" y="20" width="70" height="60" as="geometry" />
        </mxCell>
        <mxCell id="80u9e6t0kzMfV8w3QOkc-27" value="" style="shape=image;verticalLabelPosition=bottom;labelBackgroundColor=default;verticalAlign=top;aspect=fixed;imageAspect=0;image=data:image/png,iVBORw0KGgoAAAANSUhEUgAAAOEAAADhCAMAAAAJbSJIAAAAYFBMVEV0qpz///+Ds6ZrpZZvp5lno5TY5uJ/sKRxqZrk7uuVvbJtppfw9vT4+/rK3dj0+Pety8PC2NKfw7nh7OmvzMS30crG2tWNuK2jxbzR4d14rJ+XvrTZ5+Pq8vCBsqW81M7BZKrAAAAReUlEQVR4nN2d6XbiMBJGjSUFgTA7MTYhef+3bJstWqpKJdkkob85c+ZHZ8AXa6lNpWKSoGr2ttkf53X5Of0NfZZlfdxv3s5VykMX3D88L4+lVEJKqYui0L+h7nsLKY1QcnpcLsYl3K1bZS7f8EckjWqPb2MRztaFkL+NBEgKfdyNQPg+VX8R7yKtVbkcSLgpxG9jRCSKzQDC98L8NgBDhmYkCN/av/7+7hItseighNVc/faDJ0id0D0SI1yqv7Q5xKXFexrh9pVe4FVqm0B4bl9hhfFl2jOXsHm9F3iVaHiEh1cF7EbqgUN4fF3ADnEdJzy+yiYISxxjhC8OCCB6hPtXB+wQ1xTh1yvPwbu85cYhfNltwpVqMMLz/wHYIZ4Rwt9+sPHUwoSnP+vLJ8tsIcL/ZBJepZYhYfWnYmmDJaqAcPv/jNFeeu4Tfjx3jOrip0eI+vAI2+d8j5bGCKX6eLXs/teYnxsprUu4eYK11tGJ4nRYfpyrflJU1WrWHLatED/zOsXGIRz/C7TQWzC5sGqOhZI/QWkTbsaOWkiz/QDo7tqt5fPjJGZjEY782aL4iibA3n8gGvtNuBzzy7RpscCeq6Z8MqNYPgjLEWeF1JE8gqXlc7MGur4TzkbcC9U2KUH73KDQxcfoCdejbVJS8rKW39oVT9wh5fpGONonijrpBV51euZsvBLuxvoKtU/nmzw1dCJ2F8KRBqlW0XQsouZpb7EfpsVoJqmAc+qzzbFuu69op/Xx0MAVFKONokBtT7gYZ5CYGfDoy7lRprfQ9OW/nRFegBUUM3MtI7lJjGahq0VHuBxlT1LhGzyvJVDD0dmr+/BNzop6//5xXlW9hb7YNYdTZ6GPQGmWHeFxjO0+nIPnE1rDYdQWzIO5WjR9Ec/A55LHjvBz4If0En7OpzqSNSqaaRicD+3AWpfPSVGNMBbk3HuypY79+FIyV96PelC+XVbFGGHg1nuqLeeh2PbdeTvgPapz8TZ8pfZWmdUna/YYvoU3q7MfUrwVm8Gj1LjJnrPkfKIMpi6pJtcLkZtiP3weuoCcR+lWmlUK4IQ58kPJQzF4s3AzPSvOx4mSUVMYvMas2I4+FkOzFbJ2nqONf5ws8gzYBeOzwy87FXUGlS13mTlFx6jO9EB61RmI9VBCXdqPsIluPeqEli/P3vfH+bT9rLf7JTKK5+nrTV2UWWAPOUU6i9iiLqZIjHHxNS+UMbp/SZ2FbpSuN9BPER8jvsqhhM5mHxlFRsJBqmozVdJfR6QE63+T3+JQQmPvam/kGJVqDRox1dogT62h+t/UuOBQQmUPJfKjVA37E3vSfzDSL1WrEh32IYSdyzq110UqQWeQKt5lNNSm5t6bP6dZcNmEUojT0rVL8FkozRfIt+NEvbVvvy6TfIVMQi3qxp9UaDREqiM4AVdcQ8yvOEwyUrIINeijYxEzVUIRnMnkwI9S+OW/KfZbBqFGNm3YwDUtVNWa6iyYE+vHhJROKJBXAgYlNVTS2ulcJ/rdxq04TDDfUgmlwTJLUKwA8ZEiQRxQrjuZEJhIJDQlalWGQUnxCVuXG2yHJ+U6aVv2TEwjBGqMH/JzAwYJNeWexNHGHg/8TTGFUCsqtzt3CcNq5IsW+SdxXEd0zh3nKYSCqj3wFhoDv+09PgGliQ1eZ5zuuL9UAqFE1tCb3G/044sXEVFUU6ybZh85yDK1P2zKfGw+oQAA7X3fITTAJkGYaPLu929IK0DYM/uLOUzZhEDurJnaM8MhFIGdvTrhJpplQkQ2EusDo972TVxCFVgmTSucYD5NeEBLvbRonflNGQNOQIH5apiEQfh20T8Hm5Aw0YwMFugGnY7Ocnrg7ao8Ql17D3GdL0zCGf5WEL//gI1o2+FmJo6Z79B7jNumxiLsZhY+ARG/H3WsHJtxxHfoTcLqnnnhEK7wlQPz+69vCFx5nW/kTUQOoXazg4tH4IFDiPvFiN//EFgSZqw/4OUjOISOQThZ6McHDyDUiN/vaB/ujvauzCsZZRC6u3dlFWznE2J+v6fQijXWps/zgxmE2vlSO1yZS2iK0O+vYE/kY+piGCu4NxuJ0HV51/bIyCME/f53qZCAv2vISStisxqJ0HmFblQ7i1CdQr9/N+1NHjWH3WvbkLN35mocQncWuv+WQSimoX3bmay3zxNw4s025OxU1zgrjbJ/8aP7mcmERgM+9N7a3LHk6bchZ3tQoxA6lqAf/0kkBE00P6yPJcDv0dXRCR1r3o8cpBGqeWiizULLBStiuBlyo49SY/3qQQgvhVBMQxMNsT41UojS/xyjrzTOIA0qbfmEUgBh1gNe2ocEypfSju/zfOAYof1g2v/BuYRIamZF+POqho2etbXa8tynCKGyvicsD2MS4iYa6TlGDddmjHkorQ8MTXkeITLibk+Jh9ekihxN4cWiaELHtweegUNIhMkvwiM4dPsnbmSfJpTW4wHzOiESRYhKlKJBgF68iClNaFvdgK+SQzg7hZOSjKTCBRydKl7Umya0H/QrnDDSzluyCPtwKLSEEAULQDDuKmZhbITQ+r2BUZ9M+HU5ZADGL/ZEQBWw1jsdeUHvCKHlzgBp10TC73UTikFRWSkwr87iixJaFiLwd0mEbiwbWkI+PtFxB3nN61FGqTVjgEMLKYRrz36RfqOcXkR2WOpgW+WlEPmEwNrMJ4QeHazj838IS6r2fQ5W/RefcMAoxYYfVItJTMegOIqV6ubPwzp3LSWXECA044fX7D/3ZiOnT0KE0FoOgFIrFiG+DfTSUGgGn45+qQSjFJO/HwLnMDmE0Xw7cOiNyJN6BRCMupqI1WatX+95Nk00bAtlz4k8qffO49t+xPK2jA/A33wiIZ5VdXeZeCQj4j1ZYwI44/ZUwruNF8g96hjNBEc8YDuyFc7qJxNifpWx19/VQEI7XRc6Fw6h8zRZhDMo2ghMR+kc8YjNxFicxlrownXLIXRin1mEb1DZ3FKHBE5dTWw5jb1D288J/tIvYPheHPIIhTFg1D/8P9n/HklLRAgdhnC/UP7T3IMumYSdAQBUbIbRBeeHj6SCo1F929oNxktY3LW6NpHOJSzA7Ns+XAGsf40EhqNRfXvYHMK0emg6X4IuAwiBoH4YkXFmIk0QI3SGaRVEvcNiqcmlBHEIIZAFp1cAekuM5w/tJRyw5cGM314NIgwqGUKr3y6O+iC/IkooHTvwE9iBoRTD+XuTyyLsc2wkoR3npC03RqWCHfsDfU7y2HImobtOh4ROUozsChEnlM5Mgw+JEvVNTyJ0VlOyqSWnYsh5YqQbNlQi81RC25wllxoOoeuRYf2wkRTDswjt4iiy/wynrk24j471NIczfgk+fhqh9buTiymH0DtxDxqK1z+Ejgzx4zRJhNpaa8mYG6u+1L/+A2/OBYbrT8xYW9pKY+W9SLuNVyPsjdPJB34AEJqOnSEH/r34dIy+JELbOScL3Jh13s5Zjv4ziQQ8FK5/h2Le/phOI/z8/mdyy2fWeXsnHDs1gGf6eHTAy1t71bDduuT/STbhCO8wCOL12uPJaShcf57Hck+/OUp7ha+FXEKAjN/bI1wPVwRlrzTD19LCrVn41rUuFBQYridywKmEdqCTLB1ij1IkMf+O9wOG/KpLHh/rgIUTAplCO1hNFnyzzz2hFRFExg86FA3VYuQQ2j852eqKS/gZPM9DxFGstHZQaYTWPCcPXjAJNXLj1+3RiNKtaEuv9eNRkwjtI5xkjo1JiDSWeeiLOvtD17WpLEJn5SOj3twdn3rKXtTJSKyS8hq0zyO0g3x0o2fu+UPb34Rr8Yjp2Nkv0HS8/ip5hPb2TPfU4xJa83qrdKygPkQEZuPtqEgWoeOVAxUGGYSV84FYbwy4XQm4oj4MnCxCO5gYSZJy56H1dSX20BM44wf9HJaRmkOobUcg0kM3g/BaOiQFbHr55wvAiLFtJeQQOmHqSJ+TbEKi9ZPlV0mowd6703ggg9Bp5RJr9JxB+B1/Rdt33acj5GHsvIKgDELnsFmYmMoi9FaauyTS7ORSBqVFC5ziCq5wTSdUjvMZe3QuobWuOK4M6M9P+tItBdX2AsfQkwndpiLRo7JcQms4ei1dkQreyTL0RsASmVRCtxXlJFr2xSW0FpUg2U20s7QF1lUkE2q3N0C8sQJ3pbFGXBinx45i2UIbD6QR6sL5NaPVNHzfwh77wKdG28oi9U2phNIFnJyG1iY+5GSVwS2WbA1MOZDfh1TjhKZ0JzfdbDOJ0EnXweeNcH+eDAJY2ZwoofKithXnydmRKOsNYVYE3H6O7zlGCLXwZwLtVCQSOgFA9JMBf35D9Ibyyu9pQjX3h8hhrJ4KFzm7EHEBlufPf7REQNV/4wShUWUQRWfeucnvE2X/gsTf2XnSxGMwOGFdhlEU7s0tbEInUUTWyD/O/OLN2cDyNc+GtgkBi4LXFKNIyVs4xhJ9lsO0+6ZZE72h4DCI+0dBVaALyG69yCe0jwRH54AxBk2igj7jJGjYAPa0uyvhciE+oRsUzun/fhXW32PrxQaCjKWlTcI9CQldBYVbXp13pQJ2tDcoBYaTXVclXUeX0jfRSdpm3Y8cJLZv2oUHowxq6C7KpPanKb0vnfgPWjmEi+gJHfsyS5vEy65SCL26mmPST4lHdeD2c8hCA7ztiJJ60Hp925LuKcAK35BAuQQbvJ6JvDqmtC670v1C/oyXULvPCer3wznnGX4LGKFEQi+NeOAhYo4V0XAwzDkvy7yrdBJ7QftNPpuw8jsU5hzjfr+fka2arcm9+j21n7fwtusq2vkYC3AQfr9nQO0/zYCLrlMJg/qvSVNQq5tBTDS6Kbuzag+8nzG567xfitlp02Ldf43EriWh1wxnM2R2YsWU3lcfMhibWvlzSkupWuTu6k3kUm53qxh4iWjG3QhhFV//Vt7r/j7OK6bs6Ir6C7FKPqJN2bX9wwy9hrXMuO8JROwgd+/7bTltp+X8uEHLgqhiuJvcBXvgXUZZhNBc5IooaLzLveiBuryGpTLr3jXZsjIVgeL35gSZl8GXopd5d+dpESuwAcS6N0e2zuqU5aQ5KovwyB1L/tUvUfHuzfEAR7gyvMy+wxI9JQOLd2+ObF0DdoQLtcsB95Di1VyB3iI74E3Sy7ywr3ggVA65S1aqE+Pm4l4VZ4jqYORnP5mlcth9wFrNyWs9vgWdOnclg9AM+x4SSuXQO52lmh5YL7Kib/WVoQ/Jy7zE1BEyu4LhMqpdvzFqgWdzdKhKNQ/mdNr1aqjKce5Wl8K0p8Nyd70cfXHeLQ/zAijyPkKenhTyGP7tYGPmpo5woP/1kDTuBffaAKO389b72zgvGc/uP1J29vocKEyJHF9OUEc41D3BZeDdZNEcTp9tq6Vu6/US/pu3QdeN2+oJR9hWEdEtMIkOrCPNwV494Qh3jyPSsSariNAznBnqCUfZWBElm6/9u82/SR3QhXDwfkHIFKlXcDeJiYmILoRjmH+4qOvogBdI3AuVpQvh4EgBrRQvZJMb+EV1JSTKR0aRKHl9hZeRi9dydCV85lpzkVZAvYg/PjeZNyPSuhHyLqUZIi30mlpzPrbiOc9wI6QPR40kqdpjA1noi+W2GJCZoHUnfP5LvEgLMT1u3joDvTdoqmoxaw7bVhhOCitTd8LnGaeBtOwM9EvURkslxLi7X6gHIacYdVTp4nnvzdaDcDL/mS/8cX0T8m5Pej19E07ef3qc/owswrRL2V9GNuHTLZtfkUNIHxl+UTmEYwYP/oxcQm43/leSR5hcjvf35RNO5v8bYkCYVnH4AgoJ/YLrVxdAOFn/VysqRPh/2W8g4WT3Q57NTwgmnFTz/2YyIoT9oY3/xA5HCScLsgL0dYQT4jdMvJYowr549fUZacJJtX5SnPbnFCHsGL/akZNBP6woYafd1rCK0v6mOITX8w5KviYlj7DX7GveCmFMtHrrj4lP2Gv1sTysT3XZ/lwOYLDKf1fs1eSAoKQQAAAAAElFTkSuQmCC;" vertex="1" parent="1">
          <mxGeometry x="40" y="110" width="50" height="50" as="geometry" />
        </mxCell>
        <mxCell id="80u9e6t0kzMfV8w3QOkc-30" value="" style="endArrow=classic;html=1;rounded=0;exitX=0.5;exitY=1;exitDx=0;exitDy=0;exitPerimeter=0;entryX=0.5;entryY=0;entryDx=0;entryDy=0;" edge="1" parent="1" source="80u9e6t0kzMfV8w3QOkc-25" target="80u9e6t0kzMfV8w3QOkc-27">
          <mxGeometry width="50" height="50" relative="1" as="geometry">
            <mxPoint x="495" y="480" as="sourcePoint" />
            <mxPoint x="545" y="430" as="targetPoint" />
          </mxGeometry>
        </mxCell>
        <mxCell id="80u9e6t0kzMfV8w3QOkc-31" value="" style="endArrow=classic;html=1;rounded=0;exitX=0.5;exitY=1;exitDx=0;exitDy=0;exitPerimeter=0;" edge="1" parent="1" source="80u9e6t0kzMfV8w3QOkc-26">
          <mxGeometry width="50" height="50" relative="1" as="geometry">
            <mxPoint x="170" y="90" as="sourcePoint" />
            <mxPoint x="65" y="110" as="targetPoint" />
          </mxGeometry>
        </mxCell>
        <mxCell id="80u9e6t0kzMfV8w3QOkc-32" style="edgeStyle=orthogonalEdgeStyle;rounded=0;orthogonalLoop=1;jettySize=auto;html=1;exitX=0.5;exitY=1;exitDx=0;exitDy=0;entryX=0.5;entryY=0;entryDx=0;entryDy=0;entryPerimeter=0;" edge="1" parent="1" source="80u9e6t0kzMfV8w3QOkc-27" target="80u9e6t0kzMfV8w3QOkc-1">
          <mxGeometry relative="1" as="geometry" />
        </mxCell>
        <mxCell id="80u9e6t0kzMfV8w3QOkc-33" value="多轮query、用户画像、意图等信息通过prompt方式传递给GPT，GPT针对每条query输出策划方案、理由以及SUG query" style="text;html=1;strokeColor=none;fillColor=none;align=center;verticalAlign=middle;whiteSpace=wrap;rounded=0;" vertex="1" parent="1">
          <mxGeometry x="100" y="120" width="230" height="30" as="geometry" />
        </mxCell>
      </root>
    </mxGraphModel>
  </diagram>
</mxfile>
